<?xml version="1.0" standalone="no"?>
<!DOCTYPE svg PUBLIC "-//W3C//DTD SVG 20010904//EN"
 "http://www.w3.org/TR/2001/REC-SVG-20010904/DTD/svg10.dtd">
<svg version="1.0" xmlns="http://www.w3.org/2000/svg"
 width="225.000000pt" height="225.000000pt" viewBox="0 0 225.000000 225.000000"
 preserveAspectRatio="xMidYMid meet">

<g transform="translate(0.000000,225.000000) scale(0.100000,-0.100000)"
fill="#000000" stroke="none">
<path d="M982 2140 c-12 -5 -28 -7 -36 -4 -7 3 -16 -2 -19 -10 -4 -9 -17 -16
-29 -16 -19 0 -20 2 -8 11 11 8 9 9 -10 3 -14 -4 -30 -14 -36 -22 -7 -9 -19
-13 -32 -10 -11 3 -30 -1 -42 -9 -12 -8 -24 -13 -27 -9 -8 8 -139 -60 -207
-107 -32 -23 -53 -43 -47 -45 6 -2 11 -11 11 -21 0 -9 5 -22 12 -29 8 -8 8
-15 -2 -27 -14 -17 -36 -20 -44 -6 -4 5 3 7 14 4 14 -4 20 0 20 11 0 9 -8 16
-17 17 -11 0 -13 3 -5 6 17 7 15 33 -3 33 -8 0 -15 -4 -15 -10 0 -5 -7 -10
-15 -10 -17 0 -35 -30 -36 -62 l-1 -23 -7 23 -6 24 -19 -21 c-11 -12 -17 -21
-14 -21 2 0 -15 -21 -39 -46 -44 -48 -52 -64 -30 -64 7 0 12 -14 13 -31 1 -17
7 -35 15 -40 9 -5 10 -9 2 -9 -6 0 -20 -3 -30 -6 -13 -4 -14 -3 -5 4 14 10 7
58 -10 68 -16 10 -29 -18 -24 -48 5 -23 0 -30 -22 -42 -37 -19 -79 -106 -63
-132 10 -19 10 -19 11 0 0 15 3 16 14 7 12 -10 15 -7 19 16 2 16 4 7 5 -22 1
-46 0 -48 -13 -31 -13 17 -15 18 -15 3 0 -24 -15 -21 -27 6 -9 20 -12 16 -28
-38 -10 -33 -19 -85 -19 -117 0 -31 -4 -54 -8 -52 -9 6 -11 -67 -2 -90 3 -8
11 -14 17 -12 7 1 9 1 5 -1 -5 -3 -8 -15 -8 -28 0 -17 7 -25 22 -28 l23 -4
-23 -2 c-15 -1 -26 7 -32 22 -15 37 -12 -81 4 -140 8 -28 12 -54 10 -56 -6 -6
44 -154 68 -201 14 -28 23 -35 31 -27 13 13 47 15 47 2 0 -5 -9 -7 -20 -4 -15
4 -20 0 -20 -15 0 -20 36 -95 58 -124 75 -92 122 -143 131 -140 6 1 11 -4 11
-12 0 -8 7 -17 16 -20 13 -5 15 0 10 27 l-6 32 13 -27 c12 -25 14 -26 25 -10
9 13 12 13 9 2 -3 -8 3 -24 12 -34 15 -18 15 -18 -6 -7 -19 9 -23 9 -23 -2 0
-8 30 -35 67 -61 60 -41 68 -44 75 -29 6 15 7 15 7 -4 1 -13 6 -24 11 -24 21
-3 26 -5 51 -22 31 -21 142 -60 134 -47 -11 17 7 11 21 -8 10 -12 13 -13 14
-3 0 11 3 11 17 0 15 -13 16 -11 11 13 -3 16 -1 28 3 28 5 0 9 -13 9 -30 0
-16 4 -30 10 -30 5 0 9 9 7 21 -3 27 27 49 44 32 9 -9 7 -11 -10 -6 -17 4 -21
1 -21 -21 0 -28 17 -34 39 -14 11 11 13 10 8 -4 -4 -11 1 -18 16 -22 35 -9
257 -7 257 3 0 4 11 6 25 3 14 -2 36 3 51 13 15 10 35 14 49 11 14 -4 27 0 35
8 6 8 24 14 40 14 36 -1 182 68 261 123 55 39 58 43 43 60 -22 25 -14 53 16
56 l25 3 -24 -10 c-15 -7 -21 -15 -17 -26 3 -9 6 -18 6 -20 0 -2 7 -4 15 -4 8
0 15 5 15 10 0 6 6 10 14 10 9 0 17 16 21 41 6 37 8 39 24 25 16 -15 21 -12
58 34 l41 50 -14 47 c-11 37 -12 48 -2 55 21 13 36 9 54 -14 l16 -23 -6 28
c-6 24 1 32 20 25 10 -5 45 72 39 82 -4 6 1 13 9 16 19 7 12 52 -10 70 -13 10
-12 12 1 17 10 4 17 -2 21 -18 7 -30 24 -23 24 10 0 13 4 26 9 29 12 8 33 123
26 146 -4 12 -2 20 4 20 6 0 11 21 11 50 0 43 -3 50 -20 50 -12 0 -22 9 -26
24 -7 29 1 46 21 46 9 0 12 6 8 17 -4 11 -3 14 5 9 17 -10 15 44 -3 99 -9 25
-13 50 -10 55 7 11 -37 145 -67 203 -12 23 -23 36 -25 30 -6 -16 -35 -17 -51
-1 -17 17 -15 55 4 66 15 9 15 12 -2 41 -10 17 -24 31 -31 31 -7 0 -13 7 -13
16 0 22 -87 124 -106 124 -8 0 -14 6 -14 14 0 8 -7 17 -16 20 -14 5 -15 4 -4
-9 10 -12 10 -18 0 -30 -18 -22 -48 -18 -55 8 -4 12 -9 30 -11 40 -4 11 0 17
10 17 10 0 13 -6 10 -15 -6 -16 11 -21 20 -7 14 23 -76 88 -116 83 -15 -1 -28
2 -28 7 0 6 10 8 23 5 19 -4 17 -2 -8 16 -40 28 -46 27 -43 -11 3 -29 0 -33
-22 -33 -20 0 -26 6 -28 28 -2 18 2 29 12 33 9 3 16 10 16 14 0 10 -94 50
-119 50 -11 0 -23 5 -26 11 -5 6 -13 3 -22 -10 -14 -21 -43 -29 -43 -11 0 5 6
7 14 4 8 -3 17 -1 21 5 3 7 -2 11 -15 11 -11 0 -23 7 -26 15 -4 8 -13 15 -21
15 -10 0 -12 -8 -8 -34 5 -26 3 -35 -11 -40 -23 -9 -37 6 -40 46 -1 18 0 25 3
15 5 -19 24 -19 30 0 2 6 -16 16 -41 22 -53 13 -261 14 -294 1z m326 -117 c31
-15 75 -27 96 -28 35 0 40 -4 49 -30 11 -33 74 -115 88 -115 5 0 9 8 10 18 1
24 18 -21 23 -61 2 -18 13 -54 24 -82 11 -27 23 -75 27 -105 4 -30 12 -58 17
-61 7 -4 6 -14 -1 -27 -18 -34 -14 -55 9 -49 11 3 18 1 14 -4 -3 -5 -12 -9
-21 -9 -12 0 -14 -12 -13 -57 4 -105 3 -112 -22 -106 -19 4 -20 3 -8 -6 13 -9
13 -11 -2 -11 -10 0 -18 5 -18 10 0 6 -18 10 -40 10 -31 0 -38 -3 -34 -15 7
-17 34 -21 34 -5 0 6 5 10 12 10 8 0 6 -7 -5 -17 -13 -14 -21 -15 -35 -7 -13
9 -18 28 -20 83 -2 55 -6 71 -18 71 -18 0 -39 43 -31 64 4 9 16 16 27 16 17 0
20 6 20 43 0 76 -35 178 -69 204 -23 17 -44 16 -37 -2 3 -8 1 -15 -4 -15 -11
0 -24 65 -16 79 9 14 -70 65 -89 57 -9 -3 -15 0 -15 9 0 8 -4 15 -9 15 -5 0
-16 3 -25 6 -12 5 -16 -1 -17 -22 l-2 -29 -4 27 c-5 35 -33 43 -115 34 -78 -8
-150 -39 -142 -61 5 -11 10 -13 19 -5 9 8 14 7 18 -2 3 -7 6 1 6 17 2 43 21
11 21 -34 0 -27 -3 -32 -12 -23 -9 9 -14 7 -24 -6 -11 -15 -14 -13 -29 22 -9
21 -19 35 -22 32 -4 -3 0 -17 7 -31 15 -28 9 -39 -27 -50 -17 -5 -23 -2 -23 9
0 25 -16 27 -36 4 -18 -20 -18 -21 -1 -15 11 4 16 3 12 -3 -3 -6 -13 -10 -20
-10 -20 0 -60 -80 -45 -90 6 -4 18 -20 26 -35 18 -34 2 -59 -33 -52 -22 4 -23
1 -23 -53 0 -42 4 -59 15 -64 8 -3 15 -17 15 -31 0 -14 -7 -28 -15 -31 -10 -4
-15 -20 -15 -50 0 -24 -5 -44 -11 -44 -5 0 -7 -5 -3 -12 4 -6 0 -16 -9 -22
-12 -10 -8 -12 24 -13 38 -2 39 -1 33 25 -4 15 -12 30 -18 34 -6 5 -2 8 10 8
12 0 22 -6 21 -12 -2 -53 2 -58 44 -58 33 0 40 3 35 16 -3 9 -6 22 -6 30 0 8
-8 14 -17 14 -15 0 -16 2 -3 9 20 13 27 7 34 -34 l7 -36 166 2 c103 0 161 4
152 10 -9 5 -10 9 -2 9 6 0 15 -4 18 -10 9 -15 52 -12 58 4 4 10 -1 12 -16 9
-18 -4 -19 -3 -7 6 25 18 43 13 37 -9 -4 -16 0 -20 18 -20 19 0 22 5 19 28
l-4 27 11 -27 c9 -25 16 -28 55 -28 37 0 44 3 44 20 0 10 -8 24 -17 30 -17 10
-16 11 2 8 11 -2 22 -14 25 -28 6 -25 7 -25 124 -28 85 -2 122 -7 132 -17 16
-16 19 -29 4 -20 -5 3 -10 -1 -10 -10 0 -11 5 -15 14 -12 24 10 30 -26 7 -42
-19 -12 -21 -23 -21 -130 0 -107 2 -117 21 -129 13 -8 18 -19 15 -29 -4 -8 -1
-22 5 -29 8 -9 8 -14 1 -14 -6 0 -14 5 -17 10 -3 6 -10 10 -16 10 -11 0 -12
-112 0 -162 5 -22 5 -36 0 -32 -5 3 -9 -11 -9 -30 l0 -36 -122 -2 c-169 -2
-163 -2 -180 -16 -16 -13 -48 -7 -48 9 0 5 -4 9 -9 9 -5 0 -7 -10 -4 -22 4
-22 3 -22 -11 2 -8 14 -15 19 -16 11 0 -11 -3 -11 -16 0 -13 11 -15 9 -10 -17
l6 -29 -12 27 c-9 21 -19 28 -40 28 -23 0 -28 -4 -28 -25 0 -18 5 -25 20 -25
22 0 27 15 8 23 -8 3 -6 6 5 6 11 1 17 -6 17 -19 0 -20 5 -21 170 -19 94 1
173 5 176 10 13 22 94 -5 94 -31 1 -9 6 -5 15 10 20 34 18 43 -5 37 -11 -3
-20 -1 -20 4 0 5 11 9 25 9 18 0 25 -5 25 -19 0 -11 -4 -23 -10 -26 -16 -10
-12 -25 8 -26 11 -1 8 -4 -8 -8 -23 -6 -25 -12 -32 -90 -7 -80 -18 -123 -18
-68 0 22 -5 27 -24 27 -22 0 -24 -3 -16 -30 7 -25 5 -30 -13 -36 -22 -7 -48
18 -46 45 1 9 6 4 12 -12 11 -28 37 -37 37 -13 0 33 -13 46 -45 46 l-33 0 10
-36 c10 -39 -1 -57 -32 -51 -21 3 -26 55 -6 63 47 18 -1 25 -179 24 -143 -1
-194 -5 -192 -13 3 -19 -52 -21 -59 -3 -3 9 -15 16 -25 16 -14 0 -19 -8 -20
-27 l-2 -28 -4 28 c-4 22 -9 27 -33 27 -34 0 -43 -18 -21 -45 15 -19 15 -19
-2 -6 -16 13 -19 12 -24 -7 -3 -12 -9 -22 -14 -22 -5 0 -4 11 1 24 7 18 5 28
-9 40 -15 13 -46 16 -194 16 -97 0 -177 -4 -177 -8 0 -5 -7 -17 -15 -28 -14
-18 -14 -18 -9 3 4 14 -1 30 -15 45 -12 12 -17 24 -11 26 5 2 10 26 10 54 0
45 -2 50 -20 45 -16 -4 -22 2 -30 31 -14 51 -13 52 15 52 14 0 30 -9 37 -20
16 -26 28 -26 21 0 -3 11 0 20 6 20 6 0 11 -9 11 -20 0 -12 7 -20 16 -20 28 0
10 35 -24 45 -30 8 -32 12 -32 51 0 24 -4 46 -10 49 -5 3 -10 19 -10 35 0 16
5 32 10 35 22 13 7 115 -16 115 -8 0 -14 -10 -15 -22 -1 -21 -2 -20 -14 7 -19
41 -19 66 0 41 15 -20 40 -12 31 10 -3 8 -1 14 4 14 5 0 11 -8 13 -17 3 -10 5
10 6 45 0 34 -3 62 -9 62 -10 0 -33 71 -25 78 4 5 23 -38 27 -61 1 -7 5 44 8
113 l5 125 43 -3 c32 -2 42 1 42 13 0 19 14 19 30 0 7 -8 21 -15 32 -15 17 0
18 2 8 15 -7 9 -10 18 -6 22 3 3 6 1 6 -5 0 -7 7 -12 15 -12 8 0 15 4 15 9 0
11 -36 21 -77 21 -28 0 -33 3 -33 25 0 15 -6 25 -15 25 -16 0 -31 43 -20 59 3
6 13 11 21 11 13 0 15 15 14 83 -1 45 5 112 13 149 9 37 13 83 10 103 -5 32
-3 35 18 35 17 1 35 16 64 57 22 31 39 60 37 65 -1 5 2 7 7 4 5 -3 14 1 20 8
10 12 8 15 -11 18 -31 4 -32 42 0 46 12 2 22 -1 22 -6 0 -6 -10 -8 -21 -5 -15
4 -20 2 -17 -7 5 -16 56 -32 63 -20 3 4 3 15 0 22 -9 24 23 44 45 30 22 -13
46 -7 54 13 3 8 13 11 25 8 12 -3 21 -1 21 5 0 16 58 33 64 19 3 -8 9 -6 16 6
12 19 45 23 55 6 5 -6 13 -3 22 10 19 28 41 26 55 -4 7 -16 19 -25 34 -25 21
0 22 3 14 26 -6 14 -10 33 -9 42 0 9 7 -2 15 -25 13 -36 23 -46 72 -70z m223
-45 c4 -16 3 -28 -1 -28 -5 0 -10 10 -12 22 -5 36 -28 34 -29 -4 l-1 -33 -10
29 c-8 22 -7 30 3 37 23 15 42 6 50 -23z m-827 -23 c-4 -15 -2 -25 5 -25 6 0
8 8 5 18 -4 11 1 8 15 -8 26 -32 27 -44 0 -28 -17 11 -22 10 -35 -6 -11 -16
-14 -17 -14 -4 0 31 13 78 21 78 5 0 7 -11 3 -25z m-49 -25 c0 -14 4 -32 9
-40 7 -10 3 -10 -11 3 -26 23 -37 22 -30 -3 3 -11 2 -20 -3 -20 -14 0 -29 78
-16 84 27 12 51 1 51 -24z m-84 -37 c-2 -27 -6 -41 -9 -33 -2 8 -16 27 -30 43
-14 15 -21 27 -15 27 6 0 16 -7 24 -16 12 -14 14 -14 21 5 11 32 14 26 9 -26z
m588 -13 c13 -38 -1 -40 -17 -2 -11 27 -11 27 -7 -8 4 -35 4 -35 -7 -7 -16 36
-25 34 -21 -5 3 -27 1 -29 -6 -13 -16 34 -12 53 12 58 12 2 25 5 29 6 3 0 11
-12 17 -29z m566 -17 c7 -37 1 -41 -28 -15 -19 16 -20 16 -15 -5 4 -13 2 -23
-3 -23 -5 0 -9 4 -9 9 0 5 -3 24 -6 42 l-7 34 28 -25 28 -25 -7 30 c-5 19 -4
26 2 20 6 -5 13 -25 17 -42z m-672 30 c-31 -6 -29 -23 1 -23 25 0 37 -15 28
-37 -2 -7 -15 -13 -28 -13 -17 0 -25 7 -30 25 -9 35 2 55 28 54 l23 -2 -22 -4z
m581 -37 c-4 -17 0 -27 13 -35 10 -6 13 -11 6 -11 -6 0 -15 5 -18 11 -5 6 -12
4 -21 -8 -13 -17 -14 -17 -8 0 3 9 1 24 -6 32 -11 13 -10 14 4 9 10 -4 18 0
22 10 9 25 15 19 8 -8z m-311 -56 c-33 -14 -30 -38 5 -33 25 3 26 3 5 -6 -13
-6 -23 -18 -23 -28 -1 -15 -2 -16 -9 -3 -5 8 -11 27 -15 42 -5 20 -2 28 11 31
32 8 49 6 26 -3z m-712 -61 c-5 -24 -9 -38 -10 -30 -1 8 -11 26 -23 39 l-23
25 22 -12 c19 -9 23 -8 28 10 11 35 15 15 6 -32z m646 40 c9 -9 8 -19 -2 -40
-11 -21 -12 -29 -2 -32 6 -3 1 -6 -12 -6 -23 -1 -23 0 -7 24 27 40 18 73 -12
43 -8 -8 -12 -9 -12 -1 0 10 14 20 31 22 3 1 10 -4 16 -10z m626 -4 c17 7 37
-21 37 -52 -1 -11 -6 -5 -15 15 -18 41 -38 33 -31 -11 l6 -32 -15 30 c-15 32
-21 80 -7 57 5 -7 16 -10 25 -7z m-1360 -30 c15 6 37 -20 37 -45 0 -13 -42
-31 -52 -21 -3 3 -9 24 -13 46 -4 25 -3 35 3 27 5 -7 16 -10 25 -7z m1326 -60
c1 -14 -2 -16 -7 -7 -5 7 -16 10 -25 7 -10 -4 -19 1 -26 14 -16 29 -14 41 12
50 18 7 24 4 34 -18 7 -14 12 -35 12 -46z m-679 50 c-6 -8 -9 -23 -5 -36 4
-13 3 -19 -3 -15 -14 9 -21 55 -8 60 22 9 28 6 16 -9z m575 -15 c-21 -41 -19
-48 13 -44 22 3 21 2 -7 -7 -42 -13 -46 -8 -27 30 21 39 20 44 -4 38 -11 -3
-18 -1 -14 4 3 5 16 9 30 9 24 0 24 -1 9 -30z m-725 5 c-10 -12 -10 -15 1 -16
10 0 10 -2 2 -5 -8 -4 -10 -18 -7 -37 4 -30 4 -31 -6 -7 -6 13 -15 27 -20 30
-11 7 16 50 32 50 7 0 6 -6 -2 -15z m-554 -7 c4 -7 3 -8 -4 -4 -7 4 -18 4 -24
0 -9 -6 -5 -10 12 -14 24 -6 42 -40 21 -40 -6 0 -10 6 -8 12 1 7 -8 14 -20 16
-26 4 -29 12 -11 30 15 15 25 15 34 0z m632 5 c-24 -6 -23 -23 1 -23 11 0 22
-4 25 -9 8 -12 -21 -34 -36 -28 -8 4 -7 6 5 6 24 1 22 21 -3 21 -11 0 -20 6
-20 13 0 18 10 27 29 26 13 -1 13 -2 -1 -6z m572 -36 c0 -10 8 -21 17 -24 15
-6 15 -7 -3 -14 -10 -4 -26 -8 -34 -8 -12 -1 -12 1 -2 8 18 11 11 57 -7 53
-12 -3 -12 -1 -1 13 11 13 15 13 21 3 5 -7 9 -21 9 -31z m-1292 6 c1 -16 10
-34 19 -40 9 -7 12 -13 6 -13 -6 0 -19 -3 -29 -7 -12 -4 -15 -3 -10 6 10 15
-3 73 -15 65 -5 -3 -9 0 -9 5 0 6 8 11 18 11 12 0 18 -9 20 -27z m507 -19 c9
-9 15 -28 13 -43 -2 -20 -8 -26 -28 -26 -31 0 -51 45 -30 69 16 20 25 20 45 0z
m85 9 c0 -5 3 -19 6 -33 4 -22 3 -22 -11 5 l-15 30 5 -33 c3 -20 1 -31 -5 -27
-6 3 -10 12 -10 20 0 8 -4 17 -10 20 -6 4 -7 -6 -3 -27 7 -40 -4 -33 -16 10
-10 33 -4 40 37 41 12 1 22 -2 22 -6z m485 -70 c-7 -31 -21 -27 -47 17 l-20
35 26 -28 25 -27 8 37 c6 31 8 33 11 14 2 -12 1 -34 -3 -48z m-77 25 c24 -24
8 -78 -23 -78 -18 0 -37 72 -22 82 17 11 31 10 45 -4z m-84 -14 c-15 -6 -6
-45 14 -61 9 -7 11 -13 5 -13 -6 0 -19 -3 -27 -6 -12 -5 -15 -2 -10 10 9 23
-4 68 -18 60 -7 -4 -8 -3 -4 4 4 7 17 12 29 11 12 0 17 -3 11 -5z m559 -16
c-31 -15 -29 -26 5 -30 19 -2 27 -9 27 -23 0 -15 -7 -20 -30 -22 -20 -1 -23 0
-7 4 12 2 22 11 22 19 0 10 -8 14 -22 12 -29 -4 -39 38 -11 45 32 8 39 6 16
-5z m97 3 c0 -5 -8 -8 -17 -7 -10 0 -19 -7 -21 -17 -4 -22 27 -35 40 -16 8 12
9 11 5 -1 -2 -8 -15 -15 -28 -15 -18 0 -25 6 -27 24 -4 23 11 41 36 41 6 0 12
-4 12 -9z m-158 -20 c-9 -5 -12 -20 -8 -47 l6 -39 -13 33 c-7 18 -19 37 -26
42 -11 6 -8 9 10 13 40 7 45 7 31 -2z m-1207 -50 c-4 -23 -11 -43 -16 -46 -5
-4 -6 1 -3 10 4 9 0 23 -8 33 -27 31 -34 49 -11 30 26 -23 33 -23 33 4 0 12 3
19 6 15 3 -3 3 -24 -1 -46z m570 39 c4 -6 0 -22 -9 -35 -21 -32 -20 -34 7 -29
20 4 21 4 2 -5 -38 -18 -49 -13 -31 14 27 40 18 73 -12 43 -7 -7 -12 -8 -12
-2 0 24 43 34 55 14z m55 1 l-25 -7 28 -7 c15 -4 27 -14 27 -21 0 -19 -31 -29
-44 -16 -8 8 -6 9 5 5 10 -4 20 -2 24 4 3 7 -2 11 -14 11 -11 0 -23 5 -26 10
-10 16 4 30 28 29 20 -1 20 -2 -3 -8z m-764 -61 c6 -32 5 -34 -8 -16 -19 24
-38 14 -32 -17 3 -16 1 -14 -10 8 -9 17 -15 39 -15 50 0 18 0 19 10 3 15 -27
42 -23 34 5 -5 16 -4 19 4 12 6 -6 14 -26 17 -45z m72 32 c2 -7 -5 -16 -17
-19 -12 -3 -21 -10 -21 -15 0 -6 9 -8 20 -5 11 3 18 1 14 -4 -3 -5 -14 -9 -24
-9 -25 0 -39 48 -19 61 18 12 41 7 47 -9z m536 -7 c-4 -15 -2 -25 5 -25 6 0 8
8 5 18 -4 12 0 10 15 -7 12 -13 21 -28 20 -35 0 -7 -2 -7 -6 2 -7 18 -33 15
-50 -5 -13 -17 -14 -16 -9 7 3 14 6 35 6 48 0 12 5 22 10 22 6 0 8 -11 4 -25z
m653 3 c13 16 14 15 8 -5 -4 -15 0 -25 12 -33 16 -10 15 -10 -4 -5 -18 5 -23
2 -23 -12 -1 -27 -16 3 -24 47 -5 31 -5 32 5 13 11 -21 13 -22 26 -5z m-1347
-3 c0 -3 -7 -22 -15 -41 -15 -36 -15 -36 10 -32 13 3 22 2 20 -2 -3 -4 -16
-10 -31 -13 -23 -4 -25 -2 -20 18 3 13 9 30 12 39 5 12 0 16 -17 17 l-24 1 25
8 c32 10 40 11 40 5z m655 -35 c7 -23 -10 -50 -31 -50 -18 0 -35 34 -28 54 9
24 51 20 59 -4z m-759 -3 c19 7 44 -15 44 -39 0 -10 -10 -22 -22 -27 -19 -7
-25 -4 -35 18 -7 14 -12 35 -12 46 0 11 3 15 5 8 3 -7 12 -9 20 -6z m577 -7
c-33 -13 -29 -33 5 -26 26 5 26 5 4 -6 -29 -14 -23 -34 9 -30 19 2 21 1 9 -7
-30 -21 -49 -12 -56 23 -7 42 0 56 29 55 l22 0 -22 -9z m105 -19 c9 -27 8 -30
-15 -36 -40 -10 -53 12 -23 37 24 21 24 21 2 15 -12 -3 -20 -1 -16 4 12 20 42
8 52 -20z m490 -23 c8 -28 7 -38 -2 -41 -9 -4 -11 2 -8 18 4 25 -14 43 -30 27
-7 -7 -6 -17 1 -31 7 -12 8 -21 2 -21 -5 0 -13 10 -16 21 -5 15 0 28 16 44 13
12 25 22 25 21 1 0 6 -18 12 -38z m632 23 c0 -11 4 -22 10 -26 18 -11 -1 -32
-26 -27 -27 5 -29 11 -12 47 13 30 28 33 28 6z m-56 -56 l6 -30 -14 30 -15 30
-1 -30 -1 -30 -15 30 -14 30 5 -35 c6 -36 -8 -32 -19 7 -5 17 -1 23 21 31 33
11 40 7 47 -33z m-689 6 c4 -20 14 -31 28 -34 18 -4 17 -5 -5 -6 -16 0 -28 0
-28 2 0 1 -4 17 -9 35 -5 17 -6 32 -1 32 5 0 11 -13 15 -29z m-72 12 c-22 -8
-14 -23 11 -23 13 0 26 -6 29 -12 8 -23 -5 -38 -32 -37 -23 2 -24 2 -3 6 12 2
22 11 22 20 0 11 -6 14 -25 9 -22 -6 -25 -3 -25 19 0 17 5 25 18 24 10 0 12
-3 5 -6z m677 -8 c15 -18 10 -45 -12 -59 -22 -14 -36 -1 -44 42 -6 29 -4 32
19 32 13 0 30 -7 37 -15z m-80 1 c0 -2 -7 -20 -16 -41 l-15 -37 28 6 c21 5 24
4 13 -4 -8 -5 -23 -10 -34 -10 -14 0 -17 5 -12 20 3 11 9 29 12 39 5 16 2 19
-18 15 -21 -4 -21 -4 -3 5 21 10 45 14 45 7z m-1288 -56 l-7 -45 -29 38 c-16
21 -26 40 -24 43 3 3 15 -10 27 -28 l21 -33 0 31 c0 28 9 49 16 41 2 -2 0 -23
-4 -47z m628 30 c-16 -10 -3 -48 18 -53 12 -3 11 -5 -5 -6 -16 -1 -24 6 -29
24 -3 14 -10 25 -15 25 -5 0 -6 6 -3 14 3 8 13 12 25 9 14 -4 17 -8 9 -13z
m577 -11 c-4 -15 1 -28 16 -40 12 -10 17 -18 10 -19 -6 0 -15 5 -18 10 -9 15
-25 12 -25 -5 0 -8 -4 -15 -9 -15 -5 0 -7 9 -4 20 3 12 -2 29 -12 40 -19 21
-7 28 13 8 9 -9 13 -7 18 5 9 24 17 21 11 -4z m-1282 -67 c-5 -15 -9 -13 -26
8 -32 41 -43 69 -15 38 32 -36 36 -35 38 5 l1 32 4 -33 c3 -19 2 -41 -2 -50z
m654 38 c5 -16 6 -30 1 -30 -5 0 -10 10 -12 22 -5 36 -28 34 -29 -4 l-1 -33
-10 29 c-8 22 -7 30 3 37 24 15 37 10 48 -21z m-725 -15 c4 -20 4 -40 1 -45
-8 -13 -32 -13 -40 1 -4 6 0 9 11 7 16 -2 18 2 16 27 -2 16 -9 33 -15 37 -8 5
-7 8 4 8 11 0 19 -12 23 -35z m648 11 c14 -33 4 -56 -24 -55 l-23 0 23 9 c27
11 30 24 3 15 -22 -7 -46 18 -37 40 9 24 45 18 58 -9z m648 -12 c0 -31 -2 -35
-15 -24 -12 10 -15 10 -15 -4 0 -21 -16 -21 -24 0 -9 24 -7 31 4 14 8 -13 10
-12 10 4 0 12 5 16 15 12 10 -4 15 1 15 14 0 11 2 20 5 20 3 0 5 -16 5 -36z
m-1362 -24 c5 -22 6 -37 1 -34 -5 3 -9 13 -9 22 0 14 -2 14 -9 3 -5 -8 -14
-10 -21 -6 -10 6 -12 2 -8 -13 4 -12 2 -20 -2 -17 -11 7 -24 65 -16 72 3 4 13
-2 21 -13 14 -18 14 -18 15 4 0 36 17 25 28 -18z m640 1 c8 -22 7 -31 -1 -34
-8 -3 -12 8 -13 29 -1 42 1 42 14 5z m-32 -49 c-6 -6 -26 43 -25 61 0 7 7 -3
15 -22 8 -18 13 -36 10 -39z m-777 26 c-1 -13 -5 -34 -10 -48 -7 -19 -7 -15
-4 18 5 41 4 43 -17 37 -18 -5 -20 -4 -8 4 24 17 40 13 39 -11z m92 -10 c6
-22 3 -27 -15 -32 -11 -3 -24 -6 -28 -6 -15 0 -8 33 10 47 16 13 15 13 -7 7
-16 -4 -21 -3 -16 6 12 20 48 7 56 -22z m1858 -19 c1 -22 -28 -33 -45 -18 -8
6 -14 23 -13 38 1 24 2 23 10 -7 13 -43 35 -36 32 9 -2 27 -1 30 6 14 5 -11
10 -27 10 -36z m-93 33 c21 -13 25 -49 9 -66 -9 -9 -22 -16 -29 -16 -16 0 -37
78 -22 84 17 7 30 6 42 -2z m-76 -69 c0 -7 8 -13 18 -14 9 0 4 -5 -12 -10 -17
-4 -32 -6 -35 -4 -2 3 1 5 8 5 9 0 11 8 7 28 -15 61 -15 66 -1 37 8 -16 14
-36 15 -42z m-55 -18 c3 -16 3 -27 -1 -23 -4 4 -13 3 -21 -4 -18 -14 -30 -2
-37 37 l-6 30 15 -33 c19 -40 40 -32 31 11 -8 40 9 23 19 -18z m-91 26 c4 -5
-3 -7 -14 -4 -16 4 -20 0 -20 -20 0 -35 25 -54 39 -30 9 16 10 16 11 2 0 -40
-52 -29 -65 12 -11 33 33 67 49 40z m-1286 -23 c16 -16 15 -55 0 -61 -20 -7
-48 12 -48 31 0 17 18 42 30 42 3 0 11 -5 18 -12z m-68 -34 c15 -39 10 -53 -6
-16 -18 40 -39 32 -30 -11 8 -39 -9 -24 -18 16 -4 18 -3 26 3 23 5 -4 12 -2
16 4 11 17 25 11 35 -16z m-74 5 c3 -6 1 -16 -5 -22 -8 -8 -6 -16 7 -30 17
-20 17 -20 -10 -2 -28 17 -28 17 -29 -6 0 -19 -3 -16 -15 15 -7 21 -11 42 -8
47 7 13 51 11 60 -2z m-94 -31 c-7 -7 -12 -23 -13 -37 l-1 -26 -10 29 c-8 22
-7 30 3 37 21 13 35 11 21 -3z m1771 -11 c-27 -15 -16 -41 13 -32 17 6 17 5
-1 -7 -12 -7 -20 -22 -18 -33 2 -13 -3 -9 -12 10 -19 41 -18 63 3 68 32 9 37
6 15 -6z m-1837 -12 c-3 -8 -9 -22 -12 -30 -4 -10 0 -15 12 -16 18 0 17 -1 -1
-9 -30 -13 -38 -12 -31 5 3 8 9 22 12 30 4 10 0 15 -12 16 -18 0 -17 1 1 9 30
13 38 12 31 -5z m1789 -30 c0 -11 4 -26 8 -32 5 -8 4 -13 -2 -13 -5 0 -13 5
-16 10 -11 18 -25 11 -25 -12 -1 -30 -15 -7 -25 40 -7 33 -6 33 27 30 25 -2
33 -8 33 -23z m-70 -45 c4 -21 4 -44 0 -50 -8 -13 -35 -13 -35 0 0 6 5 9 11 8
6 -2 13 2 16 9 3 7 -3 10 -16 6 -26 -7 -48 31 -30 53 23 28 47 17 54 -26z
m-79 5 c9 -36 -2 -57 -28 -53 -14 2 -25 12 -28 28 -9 35 -2 50 26 50 17 0 25
-7 30 -25z m-1362 -38 c7 -35 -4 -51 -30 -44 -16 4 -15 5 4 6 25 1 30 19 7 27
-11 5 -13 10 -5 19 14 17 1 26 -24 14 -20 -10 -20 -9 -3 5 26 20 44 11 51 -27z
m1258 36 c-19 -4 -23 -9 -18 -26 3 -12 6 -25 6 -29 0 -11 40 -10 40 1 0 5 -6
11 -12 14 -7 2 -10 8 -5 12 11 13 31 -11 24 -29 -14 -35 -67 -11 -67 29 0 27
8 35 34 34 19 -2 18 -2 -2 -6z m-1427 -43 c-3 -5 -13 -10 -20 -10 -9 0 -12 -6
-9 -15 4 -10 14 -14 28 -10 19 6 20 5 4 -8 -10 -8 -18 -23 -19 -33 0 -12 -6
-6 -14 16 -18 48 -18 58 3 63 29 8 33 7 27 -3z m72 -1 c-12 -7 -16 -18 -12
-37 5 -26 5 -26 -9 3 -13 27 -12 31 2 37 26 10 39 9 19 -3z m-145 -18 c-11 -6
-11 -17 -4 -45 6 -20 7 -36 2 -36 -4 0 -11 16 -14 35 -5 23 -13 35 -24 36 -11
1 -8 4 8 9 34 11 48 11 32 1z m1870 -27 c14 -30 1 -59 -27 -59 -24 0 -42 50
-25 70 19 22 39 18 52 -11z m-1927 -34 c6 -32 6 -33 -8 -16 -17 24 -37 14 -31
-17 3 -16 1 -14 -10 8 -9 17 -15 39 -15 50 0 18 0 19 10 3 15 -27 42 -23 34 5
-5 15 -4 19 3 12 5 -5 13 -26 17 -45z m1859 -15 c6 -27 5 -28 -7 -12 -19 23
-35 21 -39 -5 -3 -17 -6 -12 -15 20 -6 23 -7 42 -2 42 5 0 9 -7 9 -15 0 -8 7
-15 15 -15 9 0 15 9 15 23 1 17 2 19 9 7 5 -8 11 -28 15 -45z m-98 18 c-4 -10
2 -25 15 -40 13 -12 17 -23 11 -23 -6 0 -14 5 -17 10 -10 16 -25 12 -25 -7 0
-28 -19 -1 -26 37 -4 28 -3 32 6 20 10 -13 12 -13 23 3 15 22 21 22 13 0z
m-52 -58 c6 -27 5 -28 -7 -12 -19 23 -35 21 -39 -5 -2 -17 -7 -11 -15 22 -10
37 -10 42 1 28 18 -25 36 -22 36 5 1 17 2 19 9 7 5 -8 11 -28 15 -45z m-101 8
c-14 -3 -23 -12 -23 -23 0 -25 17 -35 35 -20 10 8 15 9 15 2 0 -13 -36 -26
-50 -17 -11 7 -14 48 -3 58 3 4 16 6 27 6 19 -2 19 -2 -1 -6z m-1349 -54 l-7
-43 -29 34 c-15 19 -28 39 -28 45 0 5 11 -3 23 -19 l24 -29 6 33 c10 48 19 31
11 -21z m-75 17 c9 -10 9 -16 1 -21 -8 -5 -6 -13 6 -26 9 -10 12 -19 7 -19 -6
0 -17 7 -24 16 -12 15 -14 14 -19 -7 -6 -22 -7 -21 -19 15 -11 32 -11 40 0 47
20 13 35 11 48 -5z m-149 -41 c7 -8 10 -28 8 -45 -3 -16 -1 -30 4 -30 5 0 7
-4 3 -9 -9 -16 -63 21 -70 47 -10 42 29 68 55 37z m81 -7 c10 -18 8 -24 -10
-39 -11 -9 -21 -23 -22 -31 -1 -7 -7 7 -15 31 -11 36 -11 47 -1 53 21 13 36 9
48 -14z m1709 -49 c0 -36 -2 -40 -15 -29 -12 10 -15 10 -15 -4 0 -26 -15 -18
-32 17 l-16 32 4 -40 4 -40 -15 35 -15 35 3 -32 c2 -18 0 -30 -5 -27 -4 3 -8
11 -8 19 0 8 -5 17 -11 21 -8 4 -9 -4 -4 -27 4 -25 3 -30 -4 -19 -19 26 -12
50 16 61 15 6 31 15 34 21 4 6 13 -1 23 -18 10 -20 15 -24 16 -11 0 20 16 23
24 5 3 -7 4 -1 2 15 -2 15 1 27 5 27 5 0 9 -19 9 -41z m-177 4 c-20 -7 -15
-23 5 -17 15 5 15 4 1 -5 -11 -7 -15 -20 -12 -38 l3 -28 -10 25 c-6 13 -16 28
-23 32 -9 6 -9 8 1 8 6 0 12 7 12 15 0 8 8 15 18 14 10 0 12 -3 5 -6z m-49
-66 c4 -15 -2 -29 -19 -44 l-24 -23 -10 38 c-13 46 -14 55 -2 47 5 -3 12 -1
16 4 9 16 32 2 39 -22z m-1388 -26 c-21 -39 -21 -39 12 -35 27 4 27 4 -2 -6
-37 -12 -42 -7 -28 25 17 38 15 48 -9 42 -12 -3 -18 -2 -13 3 12 11 48 17 52
9 2 -4 -4 -21 -12 -38z m94 27 c0 -13 -5 -30 -10 -38 -9 -13 -13 -11 -30 10
-11 14 -20 30 -20 35 0 6 9 -1 19 -15 l19 -25 7 28 c9 33 15 35 15 5z m-146
-40 c7 -35 -13 -62 -39 -51 -14 5 -31 60 -22 69 3 3 8 -8 12 -25 7 -35 16 -43
33 -32 8 5 9 16 3 39 -5 18 -6 32 -2 32 5 0 11 -15 15 -32z m-70 -53 c-4 -8
-11 -15 -16 -15 -6 0 -5 6 2 15 7 8 14 15 16 15 2 0 1 -7 -2 -15z m1587 -29
c-13 -16 -4 -49 13 -43 6 2 10 17 9 33 l-2 29 14 -30 c18 -39 18 -50 0 -65
-13 -10 -18 -11 -28 -1 -9 10 -8 11 4 6 10 -4 20 -2 24 4 4 7 -4 11 -19 11
-19 0 -27 7 -32 26 -4 17 -2 29 7 35 20 12 23 11 10 -5z m-49 -15 c-2 -8 2
-18 9 -22 19 -12 2 -39 -26 -39 -14 0 -25 4 -25 9 0 5 8 7 19 4 23 -6 38 15
17 23 -8 3 -12 12 -9 20 3 8 -1 14 -11 14 -9 0 -16 -5 -16 -12 0 -6 -3 -9 -6
-5 -3 3 -3 11 1 17 10 16 51 8 47 -9z m-1356 -34 c-3 -12 0 -27 6 -34 7 -9 7
-13 0 -13 -6 0 -14 5 -17 10 -10 16 -25 12 -26 -7 0 -15 -2 -15 -9 2 -15 34
-11 63 8 67 29 7 44 -3 38 -25z m-82 -9 c-4 -13 -7 -34 -6 -48 1 -24 1 -24
-10 -5 -6 11 -18 29 -27 39 -15 18 -15 18 5 8 19 -10 23 -8 27 8 3 11 8 20 12
20 3 0 3 -10 -1 -22z m546 -214 c11 -29 6 -44 -16 -44 -8 0 -14 -8 -14 -17 -1
-15 -2 -16 -9 -3 -5 8 -12 29 -15 47 -6 25 -4 32 11 36 32 8 33 7 43 -19z
m-85 -4 c3 -5 0 -7 -8 -4 -8 3 -18 1 -22 -5 -3 -7 2 -11 14 -11 25 0 37 -18
21 -33 -9 -9 -11 -8 -8 3 2 9 -6 16 -19 18 -35 5 -28 37 9 41 4 1 10 -3 13 -9z
m578 -41 c2 -28 -2 -35 -20 -37 -17 -3 -26 3 -33 23 -5 14 -10 34 -9 43 0 9 6
1 13 -18 7 -19 19 -35 27 -35 15 0 15 4 5 50 -6 23 -5 27 4 19 7 -7 13 -27 13
-45z m71 43 c2 -4 7 -25 10 -47 3 -22 3 -33 0 -24 -3 11 -13 15 -29 11 -19 -3
-25 1 -30 21 -4 14 -4 31 0 36 7 13 42 15 49 3z m-720 -18 c19 -49 -8 -89 -39
-58 -15 16 -20 55 -8 67 12 13 41 7 47 -9z m548 -5 c-30 -11 -23 -35 9 -32
l24 3 -22 -10 c-13 -5 -23 -17 -24 -27 -1 -10 -7 0 -14 22 -13 42 -5 53 35 54
8 0 4 -4 -8 -10z m-620 -23 c12 -27 5 -56 -13 -56 -8 0 -7 5 2 16 12 15 11 16
-7 10 -25 -8 -49 16 -40 39 9 24 45 18 58 -9z m563 -44 l-7 -37 -29 35 c-16
19 -29 39 -29 45 0 5 11 -3 24 -20 l23 -29 8 34 c10 46 19 20 10 -28z m-167
-14 c11 15 12 15 7 -4 -4 -15 0 -24 11 -28 9 -4 14 -9 11 -13 -4 -3 -13 0 -22
7 -12 10 -15 9 -15 -6 -1 -28 -16 2 -24 46 -6 35 -6 35 7 8 11 -25 14 -26 25
-10z m87 -34 c-3 -19 -10 -34 -15 -34 -5 0 -7 7 -3 16 3 8 -4 29 -16 45 -25
34 -18 39 10 7 l18 -23 2 30 c1 19 3 23 6 12 3 -11 2 -34 -2 -53z m-151 11
c-4 -8 0 -23 7 -32 12 -14 12 -16 0 -8 -9 5 -19 2 -29 -11 -13 -18 -14 -18 -7
4 4 13 2 29 -6 38 -10 12 -9 13 4 9 8 -4 18 -2 22 4 9 16 15 13 9 -4z"/>
<path d="M1140 2077 c0 -7 9 -13 19 -14 14 -1 18 3 14 13 -6 17 -33 19 -33 1z"/>
<path d="M1068 2063 c7 -3 16 -2 19 1 4 3 -2 6 -13 5 -11 0 -14 -3 -6 -6z"/>
<path d="M840 1989 c0 -18 2 -19 15 -9 15 12 12 30 -6 30 -5 0 -9 -10 -9 -21z"/>
<path d="M1410 1980 c0 -5 4 -10 9 -10 6 0 13 5 16 10 3 6 -1 10 -9 10 -9 0
-16 -4 -16 -10z"/>
<path d="M885 1830 c-3 -6 1 -7 9 -4 18 7 21 14 7 14 -6 0 -13 -4 -16 -10z"/>
<path d="M897 1813 c-12 -11 -8 -23 8 -23 8 0 15 7 15 15 0 16 -12 20 -23 8z"/>
<path d="M1370 1800 c0 -5 7 -10 16 -10 8 0 12 5 9 10 -3 6 -10 10 -16 10 -5
0 -9 -4 -9 -10z"/>
<path d="M650 1781 c0 -17 18 -21 24 -6 3 9 0 15 -9 15 -8 0 -15 -4 -15 -9z"/>
<path d="M777 1653 c-12 -11 -8 -23 8 -23 8 0 15 7 15 15 0 16 -12 20 -23 8z"/>
<path d="M780 1605 c0 -8 7 -15 15 -15 8 0 15 7 15 15 0 8 -7 15 -15 15 -8 0
-15 -7 -15 -15z"/>
<path d="M1462 1473 c4 -37 25 -40 26 -3 0 20 -4 30 -14 30 -11 0 -14 -8 -12
-27z"/>
<path d="M760 1435 c0 -15 4 -24 10 -20 6 3 10 12 10 20 0 8 -4 17 -10 20 -6
4 -10 -5 -10 -20z"/>
<path d="M592 1398 c5 -32 28 -35 28 -4 0 17 -5 26 -16 26 -10 0 -14 -7 -12
-22z"/>
<path d="M1710 1175 c0 -9 6 -12 15 -9 8 4 12 10 9 15 -8 14 -24 10 -24 -6z"/>
<path d="M1710 885 c0 -8 5 -15 10 -15 6 0 10 7 10 15 0 8 -4 15 -10 15 -5 0
-10 -7 -10 -15z"/>
<path d="M532 725 c0 -16 2 -22 5 -12 2 9 2 23 0 30 -3 6 -5 -1 -5 -18z"/>
<path d="M623 560 c6 -16 15 -30 20 -30 5 0 6 7 3 16 -3 9 -6 22 -6 30 0 8 -6
14 -14 14 -12 0 -12 -5 -3 -30z"/>
<path d="M704 575 c3 -8 -4 -21 -17 -30 -20 -14 -5 -15 181 -15 118 1 202 5
202 11 0 5 -8 9 -17 9 -15 0 -16 2 -3 10 8 5 24 9 35 9 11 0 15 -3 8 -5 -20
-9 -2 -34 23 -34 24 0 32 14 14 25 -5 3 -10 12 -9 18 0 7 7 2 16 -10 20 -30
33 -29 33 2 l0 25 -159 0 c-88 0 -171 -4 -185 -10 -17 -6 -26 -6 -26 0 0 6
-11 10 -25 10 -19 0 -23 -4 -19 -17 5 -17 5 -17 -9 0 -18 21 -52 23 -43 2z"/>
<path d="M1180 566 c0 -24 16 -43 26 -33 8 7 -7 57 -17 57 -5 0 -9 -11 -9 -24z"/>
<path d="M1378 578 c9 -9 15 -9 24 0 9 9 7 12 -12 12 -19 0 -21 -3 -12 -12z"/>
<path d="M660 565 c0 -8 7 -15 15 -15 8 0 15 7 15 15 0 8 -7 15 -15 15 -8 0
-15 -7 -15 -15z"/>
<path d="M498 545 c5 -30 20 -41 34 -27 15 15 0 52 -21 52 -14 0 -17 -6 -13
-25z"/>
<path d="M1115 350 c3 -5 13 -10 21 -10 8 0 14 5 14 10 0 6 -9 10 -21 10 -11
0 -17 -4 -14 -10z"/>
<path d="M1532 309 c1 -12 9 -24 16 -27 9 -3 13 3 10 19 -1 12 -9 24 -16 27
-9 3 -13 -3 -10 -19z"/>
<path d="M615 1939 c-10 -15 1 -23 20 -15 9 3 13 10 10 16 -8 13 -22 13 -30
-1z"/>
<path d="M1040 1845 c0 -8 7 -15 15 -15 8 0 15 7 15 15 0 8 -7 15 -15 15 -8 0
-15 -7 -15 -15z"/>
<path d="M514 1727 c-8 -22 11 -46 26 -31 7 7 5 17 -4 30 -14 18 -15 18 -22 1z"/>
<path d="M1790 1732 c0 -5 6 -16 13 -27 16 -20 33 -5 23 20 -6 16 -36 21 -36
7z"/>
<path d="M855 1668 c-10 -25 -2 -53 15 -53 20 0 24 26 6 50 -13 18 -15 18 -21
3z"/>
<path d="M1344 1608 c7 -37 11 -42 25 -33 15 8 14 38 -1 53 -21 21 -31 13 -24
-20z"/>
<path d="M475 1550 c-3 -5 1 -10 9 -10 9 0 16 5 16 10 0 6 -4 10 -9 10 -6 0
-13 -4 -16 -10z"/>
<path d="M970 1501 c0 -24 18 -37 31 -24 13 13 1 43 -17 43 -8 0 -14 -9 -14
-19z"/>
<path d="M253 1484 c-7 -18 11 -39 25 -30 12 7 4 46 -9 46 -6 0 -12 -7 -16
-16z"/>
<path d="M906 1471 c-4 -7 -5 -15 -2 -18 9 -9 19 4 14 18 -4 11 -6 11 -12 0z"/>
<path d="M2037 1460 c-3 -11 -1 -20 4 -20 5 0 9 9 9 20 0 11 -2 20 -4 20 -2 0
-6 -9 -9 -20z"/>
<path d="M1878 1415 c5 -30 21 -42 32 -25 12 19 0 50 -20 50 -13 0 -16 -6 -12
-25z"/>
<path d="M1005 1370 c-3 -6 1 -13 10 -16 19 -8 30 0 20 15 -8 14 -22 14 -30 1z"/>
<path d="M230 1290 c-8 -5 -11 -12 -7 -16 4 -4 13 -2 19 4 15 15 7 24 -12 12z"/>
<path d="M1993 1289 c4 -13 7 -27 7 -31 0 -5 7 -8 16 -8 23 0 14 54 -10 58
-15 3 -18 0 -13 -19z"/>
<path d="M483 1214 c-3 -8 1 -23 10 -32 15 -14 17 -14 23 1 8 21 -1 47 -16 47
-6 0 -13 -7 -17 -16z"/>
<path d="M330 1184 c0 -9 5 -14 12 -12 18 6 21 28 4 28 -9 0 -16 -7 -16 -16z"/>
<path d="M1960 1115 c0 -9 6 -12 15 -9 8 4 15 10 15 15 0 5 -7 9 -15 9 -8 0
-15 -7 -15 -15z"/>
<path d="M1890 1076 c0 -17 5 -26 16 -26 10 0 14 7 12 22 -5 32 -28 35 -28 4z"/>
<path d="M1810 1065 c0 -14 7 -28 15 -32 22 -8 28 2 21 32 -8 33 -36 33 -36 0z
m30 -5 c0 -5 -4 -10 -10 -10 -5 0 -10 5 -10 10 0 6 5 10 10 10 6 0 10 -4 10
-10z"/>
<path d="M2078 995 c-8 -8 3 -54 14 -61 18 -12 29 12 19 39 -10 26 -21 33 -33
22z"/>
<path d="M347 863 c-12 -11 -8 -23 8 -23 8 0 15 7 15 15 0 16 -12 20 -23 8z"/>
<path d="M190 801 c0 -33 16 -49 33 -32 7 7 7 18 -1 36 -16 34 -32 32 -32 -4z"/>
<path d="M272 808 c5 -32 28 -35 28 -4 0 17 -5 26 -16 26 -10 0 -14 -7 -12
-22z"/>
<path d="M1754 716 c-7 -20 2 -46 16 -46 13 0 13 47 0 55 -6 3 -13 -1 -16 -9z"/>
<path d="M420 541 c0 -18 18 -21 30 -6 10 13 9 15 -9 15 -11 0 -21 -4 -21 -9z"/>
<path d="M896 323 c-12 -12 -6 -43 9 -43 8 0 15 9 15 19 0 21 -13 34 -24 24z"/>
<path d="M1456 301 c-7 -11 3 -41 14 -41 14 0 21 17 14 34 -7 18 -20 21 -28 7z"/>
<path d="M730 283 c0 -11 6 -28 14 -39 13 -17 15 -18 21 -2 10 26 2 52 -18 56
-11 2 -17 -3 -17 -15z m30 -13 c0 -5 -4 -10 -10 -10 -5 0 -10 5 -10 10 0 6 5
10 10 10 6 0 10 -4 10 -10z"/>
<path d="M656 271 c-3 -5 1 -14 8 -20 16 -13 32 2 21 19 -8 12 -22 13 -29 1z"/>
<path d="M1300 2074 c0 -9 5 -14 12 -12 18 6 21 28 4 28 -9 0 -16 -7 -16 -16z"/>
<path d="M1564 2007 c-8 -22 11 -46 26 -31 7 7 5 17 -4 30 -14 18 -15 18 -22
1z"/>
<path d="M1760 1864 c0 -9 5 -14 12 -12 18 6 21 28 4 28 -9 0 -16 -7 -16 -16z"/>
<path d="M226 1624 c-4 -9 -4 -19 -1 -22 2 -3 7 3 11 12 4 9 4 19 1 22 -2 3
-7 -3 -11 -12z"/>
<path d="M1980 1626 c0 -25 12 -46 26 -46 9 0 14 11 14 30 0 23 -4 30 -20 30
-11 0 -20 -6 -20 -14z"/>
<path d="M2114 1145 c-7 -18 3 -35 22 -35 15 0 17 9 8 34 -8 20 -23 21 -30 1z"/>
<path d="M1943 594 c-7 -18 11 -39 25 -30 12 7 4 46 -9 46 -6 0 -12 -7 -16
-16z"/>
<path d="M1950 540 c0 -5 5 -10 10 -10 6 0 10 5 10 10 0 6 -4 10 -10 10 -5 0
-10 -4 -10 -10z"/>
</g>
</svg>
